<svg height="512pt" viewBox="-120 0 512 512.00081" width="512pt" xmlns="http://www.w3.org/2000/svg" xmlns:xlink="http://www.w3.org/1999/xlink"><linearGradient id="linear0" gradientUnits="userSpaceOnUse" x1=".000255" x2="272.000255" y1="256.000807" y2="256.000807"><stop offset="0" stop-color="#80d8ff"/><stop offset="1" stop-color="#ea80fc"/></linearGradient><path d="m258.902344 85.074219c-3.695313-5.65625-10.003906-9.070313-16.769532-9.070313h-47.636718v-12.390625l63.425781-25.003906c10.289063-4.058594 15.335937-15.671875 11.273437-25.949219-4.058593-10.269531-15.6875-15.3125-25.980468-11.257812l-76.097656 30c-7.648438 3.015625-12.675782 10.390625-12.675782 18.601562v26h-124.5625c-6.769531 0-13.074218 3.410156-16.773437 9.070313-41.414063 63.378906 28.558593 170.921875 28.558593 278.519531 0 51.15625-7.367187 67.09375-11.832031 93.003906-4.996093 28.960938 17.445313 55.402344 46.871094 55.402344h118.605469c29.425781 0 51.863281-26.445312 46.871094-55.402344-4.464844-25.898437-11.835938-41.851562-11.835938-93.003906 0-107.488281 69.953125-215.171875 28.558594-278.519531zm-217.503906 66.929687c.164062-17.273437 1.625-28.792968 3.054687-36h109.992187v36zm148.894531 211.589844c0 55.871094 8.308593 75.976562 12.417969 99.789062.773437 4.507813-2.789063 8.617188-7.402344 8.617188h-118.605469c-4.617187 0-8.179687-4.113281-7.402344-8.617188 4.105469-23.8125 12.414063-43.921874 12.414063-99.789062 0-72.480469-22.273438-129.1875-33.847656-171.589844h176.277343c-11.546875 42.285156-33.851562 99.085938-33.851562 171.589844zm4.203125-211.589844v-36h33.0625c1.425781 7.207032 2.886718 18.726563 3.050781 36zm0 0" fill="url(#linear0)"/></svg>
